# xmcd
#
# Track frame offsets:
#	150
#	22640
#	45087
#	67887
#	86032
#
# Disc length: 1280 seconds
#
# Revision: 1
# Processed by: cddbd v1.5.1PL0 Copyright (c) Steve Scherf et al.
# Submitted via: CDex 1.50Beta5
#
DISCID=2804fe05
DTITLE=五木ひろし - 女の酒場
DYEAR=1996
DGENRE=World
TTITLE0=五木ひろし/女の酒場
TTITLE1=女の酒場
TTITLE2=女の酒場
TTITLE3=五木ひろし/裏窓の女
TTITLE4=五木ひろし/「女の酒場」歌唱指導
EXTD=
EXTT0=
EXTT1=
EXTT2=
EXTT3=
EXTT4=
PLAYORDER=
